<?xml version="1.0" encoding="UTF-8" standalone="no"?>
<svg width="512" height="512" viewBox="0 0 512 512" fill="none" xmlns="http://www.w3.org/2000/svg">
  <!-- Background circle -->
  <circle cx="256" cy="256" r="240" fill="#0A0F23"/>
  
  <!-- QR code outer frame -->
  <rect x="130" y="130" width="252" height="252" rx="24" stroke="#3B82F6" stroke-width="12" stroke-linecap="round" stroke-linejoin="round"/>
  
  <!-- QR code pattern elements -->
  <rect x="166" y="166" width="60" height="60" rx="8" fill="#3B82F6"/>
  <rect x="286" y="166" width="60" height="60" rx="8" fill="#3B82F6"/>
  <rect x="166" y="286" width="60" height="60" rx="8" fill="#3B82F6"/>
  
  <!-- QR code inner elements -->
  <rect x="176" y="176" width="40" height="40" rx="4" fill="#0A0F23"/>
  <rect x="296" y="176" width="40" height="40" rx="4" fill="#0A0F23"/>
  <rect x="176" y="296" width="40" height="40" rx="4" fill="#0A0F23"/>
  
  <!-- Center sections of QR code -->
  <rect x="246" y="166" width="20" height="60" fill="#3B82F6"/>
  <rect x="246" y="246" width="20" height="20" fill="#3B82F6"/>
  <rect x="246" y="286" width="20" height="20" fill="#3B82F6"/>
  <rect x="246" y="326" width="20" height="20" fill="#3B82F6"/>
  
  <rect x="166" y="246" width="20" height="20" fill="#3B82F6"/>
  <rect x="206" y="246" width="20" height="20" fill="#3B82F6"/>
  <rect x="286" y="246" width="20" height="20" fill="#3B82F6"/>
  <rect x="326" y="246" width="20" height="20" fill="#3B82F6"/>
  
  <rect x="286" y="286" width="60" height="20" fill="#3B82F6"/>
  <rect x="286" y="326" width="20" height="20" fill="#3B82F6"/>
  <rect x="326" y="326" width="20" height="20" fill="#3B82F6"/>
  
  <!-- Mingle elements representing connection -->
  <path d="M382 196 A120 120 0 0 1 382 316" stroke="#60A5FA" stroke-width="12" stroke-linecap="round"/>
  <path d="M130 316 A120 120 0 0 1 130 196" stroke="#60A5FA" stroke-width="12" stroke-linecap="round"/>
  
  <!-- Text (stylized as part of the logo) -->
  <text x="256" y="420" font-family="Arial, sans-serif" font-size="36" font-weight="bold" fill="#FFFFFF" text-anchor="middle">QrMingle</text>
</svg>