
<svg width="120" height="120" viewBox="0 0 120 120" xmlns="http://www.w3.org/2000/svg">
  <defs>
    <linearGradient id="grad" x1="0%" y1="0%" x2="100%" y2="100%">
      <stop offset="0%" style="stop-color:#4F46E5;stop-opacity:1" />
      <stop offset="100%" style="stop-color:#7C3AED;stop-opacity:1" />
    </linearGradient>
  </defs>
  <rect width="120" height="120" rx="26.4" fill="url(#grad)"/>
  
  <!-- QR Code representation -->
  <g transform="translate(24, 24)">
    <rect x="0" y="0" width="72" height="72" rx="6" fill="white" fill-opacity="0.95"/>
    
    <!-- QR corner markers -->
    <rect x="6" y="6" width="18" height="18" rx="2.4" fill="#4F46E5"/>
    <rect x="48" y="6" width="18" height="18" rx="2.4" fill="#4F46E5"/>
    <rect x="6" y="48" width="18" height="18" rx="2.4" fill="#4F46E5"/>
    
    <!-- QR data dots -->
    <rect x="30" y="9.6" width="3.5999999999999996" height="3.5999999999999996" fill="#4F46E5"/>
    <rect x="38.4" y="9.6" width="3.5999999999999996" height="3.5999999999999996" fill="#4F46E5"/>
    <rect x="30" y="18" width="3.5999999999999996" height="3.5999999999999996" fill="#4F46E5"/>
    <rect x="38.4" y="30" width="3.5999999999999996" height="3.5999999999999996" fill="#4F46E5"/>
    <rect x="9.6" y="30" width="3.5999999999999996" height="3.5999999999999996" fill="#4F46E5"/>
    <rect x="50.4" y="30" width="3.5999999999999996" height="3.5999999999999996" fill="#4F46E5"/>
    <rect x="30" y="38.4" width="3.5999999999999996" height="3.5999999999999996" fill="#4F46E5"/>
    <rect x="38.4" y="50.4" width="3.5999999999999996" height="3.5999999999999996" fill="#4F46E5"/>
    <rect x="50.4" y="50.4" width="3.5999999999999996" height="3.5999999999999996" fill="#4F46E5"/>
    <rect x="57.599999999999994" y="38.4" width="3.5999999999999996" height="3.5999999999999996" fill="#4F46E5"/>
    <rect x="30" y="57.599999999999994" width="3.5999999999999996" height="3.5999999999999996" fill="#4F46E5"/>
  </g>
  
  <text x="60" y="108" text-anchor="middle" font-family="-apple-system, BlinkMacSystemFont, Arial" font-size="9.6" font-weight="600" fill="white">QrMingle</text>
</svg>