
<svg width="180" height="180" viewBox="0 0 180 180" xmlns="http://www.w3.org/2000/svg">
  <defs>
    <linearGradient id="grad" x1="0%" y1="0%" x2="100%" y2="100%">
      <stop offset="0%" style="stop-color:#4F46E5;stop-opacity:1" />
      <stop offset="100%" style="stop-color:#7C3AED;stop-opacity:1" />
    </linearGradient>
  </defs>
  <rect width="180" height="180" rx="39.6" fill="url(#grad)"/>
  
  <!-- QR Code representation -->
  <g transform="translate(36, 36)">
    <rect x="0" y="0" width="108" height="108" rx="9" fill="white" fill-opacity="0.95"/>
    
    <!-- QR corner markers -->
    <rect x="9" y="9" width="27" height="27" rx="3.6" fill="#4F46E5"/>
    <rect x="72" y="9" width="27" height="27" rx="3.6" fill="#4F46E5"/>
    <rect x="9" y="72" width="27" height="27" rx="3.6" fill="#4F46E5"/>
    
    <!-- QR data dots -->
    <rect x="45" y="14.4" width="5.3999999999999995" height="5.3999999999999995" fill="#4F46E5"/>
    <rect x="57.6" y="14.4" width="5.3999999999999995" height="5.3999999999999995" fill="#4F46E5"/>
    <rect x="45" y="27" width="5.3999999999999995" height="5.3999999999999995" fill="#4F46E5"/>
    <rect x="57.6" y="45" width="5.3999999999999995" height="5.3999999999999995" fill="#4F46E5"/>
    <rect x="14.4" y="45" width="5.3999999999999995" height="5.3999999999999995" fill="#4F46E5"/>
    <rect x="75.6" y="45" width="5.3999999999999995" height="5.3999999999999995" fill="#4F46E5"/>
    <rect x="45" y="57.6" width="5.3999999999999995" height="5.3999999999999995" fill="#4F46E5"/>
    <rect x="57.6" y="75.6" width="5.3999999999999995" height="5.3999999999999995" fill="#4F46E5"/>
    <rect x="75.6" y="75.6" width="5.3999999999999995" height="5.3999999999999995" fill="#4F46E5"/>
    <rect x="86.39999999999999" y="57.6" width="5.3999999999999995" height="5.3999999999999995" fill="#4F46E5"/>
    <rect x="45" y="86.39999999999999" width="5.3999999999999995" height="5.3999999999999995" fill="#4F46E5"/>
  </g>
  
  <text x="90" y="162" text-anchor="middle" font-family="-apple-system, BlinkMacSystemFont, Arial" font-size="14.4" font-weight="600" fill="white">QrMingle</text>
</svg>