
<svg width="167" height="167" viewBox="0 0 167 167" xmlns="http://www.w3.org/2000/svg">
  <defs>
    <linearGradient id="grad" x1="0%" y1="0%" x2="100%" y2="100%">
      <stop offset="0%" style="stop-color:#4F46E5;stop-opacity:1" />
      <stop offset="100%" style="stop-color:#7C3AED;stop-opacity:1" />
    </linearGradient>
  </defs>
  <rect width="167" height="167" rx="36.74" fill="url(#grad)"/>
  
  <!-- QR Code representation -->
  <g transform="translate(33.4, 33.4)">
    <rect x="0" y="0" width="100.2" height="100.2" rx="8.35" fill="white" fill-opacity="0.95"/>
    
    <!-- QR corner markers -->
    <rect x="8.35" y="8.35" width="25.05" height="25.05" rx="3.34" fill="#4F46E5"/>
    <rect x="66.8" y="8.35" width="25.05" height="25.05" rx="3.34" fill="#4F46E5"/>
    <rect x="8.35" y="66.8" width="25.05" height="25.05" rx="3.34" fill="#4F46E5"/>
    
    <!-- QR data dots -->
    <rect x="41.75" y="13.36" width="5.01" height="5.01" fill="#4F46E5"/>
    <rect x="53.44" y="13.36" width="5.01" height="5.01" fill="#4F46E5"/>
    <rect x="41.75" y="25.05" width="5.01" height="5.01" fill="#4F46E5"/>
    <rect x="53.44" y="41.75" width="5.01" height="5.01" fill="#4F46E5"/>
    <rect x="13.36" y="41.75" width="5.01" height="5.01" fill="#4F46E5"/>
    <rect x="70.14" y="41.75" width="5.01" height="5.01" fill="#4F46E5"/>
    <rect x="41.75" y="53.44" width="5.01" height="5.01" fill="#4F46E5"/>
    <rect x="53.44" y="70.14" width="5.01" height="5.01" fill="#4F46E5"/>
    <rect x="70.14" y="70.14" width="5.01" height="5.01" fill="#4F46E5"/>
    <rect x="80.16" y="53.44" width="5.01" height="5.01" fill="#4F46E5"/>
    <rect x="41.75" y="80.16" width="5.01" height="5.01" fill="#4F46E5"/>
  </g>
  
  <text x="83.5" y="150.3" text-anchor="middle" font-family="-apple-system, BlinkMacSystemFont, Arial" font-size="13.36" font-weight="600" fill="white">QrMingle</text>
</svg>