
<svg width="58" height="58" viewBox="0 0 58 58" xmlns="http://www.w3.org/2000/svg">
  <defs>
    <linearGradient id="grad" x1="0%" y1="0%" x2="100%" y2="100%">
      <stop offset="0%" style="stop-color:#4F46E5;stop-opacity:1" />
      <stop offset="100%" style="stop-color:#7C3AED;stop-opacity:1" />
    </linearGradient>
  </defs>
  <rect width="58" height="58" rx="12.76" fill="url(#grad)"/>
  
  <!-- QR Code representation -->
  <g transform="translate(11.600000000000001, 11.600000000000001)">
    <rect x="0" y="0" width="34.8" height="34.8" rx="2.9000000000000004" fill="white" fill-opacity="0.95"/>
    
    <!-- QR corner markers -->
    <rect x="2.9000000000000004" y="2.9000000000000004" width="8.7" height="8.7" rx="1.16" fill="#4F46E5"/>
    <rect x="23.200000000000003" y="2.9000000000000004" width="8.7" height="8.7" rx="1.16" fill="#4F46E5"/>
    <rect x="2.9000000000000004" y="23.200000000000003" width="8.7" height="8.7" rx="1.16" fill="#4F46E5"/>
    
    <!-- QR data dots -->
    <rect x="14.5" y="4.64" width="1.74" height="1.74" fill="#4F46E5"/>
    <rect x="18.56" y="4.64" width="1.74" height="1.74" fill="#4F46E5"/>
    <rect x="14.5" y="8.7" width="1.74" height="1.74" fill="#4F46E5"/>
    <rect x="18.56" y="14.5" width="1.74" height="1.74" fill="#4F46E5"/>
    <rect x="4.64" y="14.5" width="1.74" height="1.74" fill="#4F46E5"/>
    <rect x="24.36" y="14.5" width="1.74" height="1.74" fill="#4F46E5"/>
    <rect x="14.5" y="18.56" width="1.74" height="1.74" fill="#4F46E5"/>
    <rect x="18.56" y="24.36" width="1.74" height="1.74" fill="#4F46E5"/>
    <rect x="24.36" y="24.36" width="1.74" height="1.74" fill="#4F46E5"/>
    <rect x="27.84" y="18.56" width="1.74" height="1.74" fill="#4F46E5"/>
    <rect x="14.5" y="27.84" width="1.74" height="1.74" fill="#4F46E5"/>
  </g>
  
  
</svg>