
<svg width="152" height="152" viewBox="0 0 152 152" xmlns="http://www.w3.org/2000/svg">
  <defs>
    <linearGradient id="grad" x1="0%" y1="0%" x2="100%" y2="100%">
      <stop offset="0%" style="stop-color:#4F46E5;stop-opacity:1" />
      <stop offset="100%" style="stop-color:#7C3AED;stop-opacity:1" />
    </linearGradient>
  </defs>
  <rect width="152" height="152" rx="33.44" fill="url(#grad)"/>
  
  <!-- QR Code representation -->
  <g transform="translate(30.400000000000002, 30.400000000000002)">
    <rect x="0" y="0" width="91.2" height="91.2" rx="7.6000000000000005" fill="white" fill-opacity="0.95"/>
    
    <!-- QR corner markers -->
    <rect x="7.6000000000000005" y="7.6000000000000005" width="22.8" height="22.8" rx="3.04" fill="#4F46E5"/>
    <rect x="60.800000000000004" y="7.6000000000000005" width="22.8" height="22.8" rx="3.04" fill="#4F46E5"/>
    <rect x="7.6000000000000005" y="60.800000000000004" width="22.8" height="22.8" rx="3.04" fill="#4F46E5"/>
    
    <!-- QR data dots -->
    <rect x="38" y="12.16" width="4.56" height="4.56" fill="#4F46E5"/>
    <rect x="48.64" y="12.16" width="4.56" height="4.56" fill="#4F46E5"/>
    <rect x="38" y="22.8" width="4.56" height="4.56" fill="#4F46E5"/>
    <rect x="48.64" y="38" width="4.56" height="4.56" fill="#4F46E5"/>
    <rect x="12.16" y="38" width="4.56" height="4.56" fill="#4F46E5"/>
    <rect x="63.839999999999996" y="38" width="4.56" height="4.56" fill="#4F46E5"/>
    <rect x="38" y="48.64" width="4.56" height="4.56" fill="#4F46E5"/>
    <rect x="48.64" y="63.839999999999996" width="4.56" height="4.56" fill="#4F46E5"/>
    <rect x="63.839999999999996" y="63.839999999999996" width="4.56" height="4.56" fill="#4F46E5"/>
    <rect x="72.96" y="48.64" width="4.56" height="4.56" fill="#4F46E5"/>
    <rect x="38" y="72.96" width="4.56" height="4.56" fill="#4F46E5"/>
  </g>
  
  <text x="76" y="136.8" text-anchor="middle" font-family="-apple-system, BlinkMacSystemFont, Arial" font-size="12.16" font-weight="600" fill="white">QrMingle</text>
</svg>