
<svg width="60" height="60" viewBox="0 0 60 60" xmlns="http://www.w3.org/2000/svg">
  <defs>
    <linearGradient id="grad" x1="0%" y1="0%" x2="100%" y2="100%">
      <stop offset="0%" style="stop-color:#4F46E5;stop-opacity:1" />
      <stop offset="100%" style="stop-color:#7C3AED;stop-opacity:1" />
    </linearGradient>
  </defs>
  <rect width="60" height="60" rx="13.2" fill="url(#grad)"/>
  
  <!-- QR Code representation -->
  <g transform="translate(12, 12)">
    <rect x="0" y="0" width="36" height="36" rx="3" fill="white" fill-opacity="0.95"/>
    
    <!-- QR corner markers -->
    <rect x="3" y="3" width="9" height="9" rx="1.2" fill="#4F46E5"/>
    <rect x="24" y="3" width="9" height="9" rx="1.2" fill="#4F46E5"/>
    <rect x="3" y="24" width="9" height="9" rx="1.2" fill="#4F46E5"/>
    
    <!-- QR data dots -->
    <rect x="15" y="4.8" width="1.7999999999999998" height="1.7999999999999998" fill="#4F46E5"/>
    <rect x="19.2" y="4.8" width="1.7999999999999998" height="1.7999999999999998" fill="#4F46E5"/>
    <rect x="15" y="9" width="1.7999999999999998" height="1.7999999999999998" fill="#4F46E5"/>
    <rect x="19.2" y="15" width="1.7999999999999998" height="1.7999999999999998" fill="#4F46E5"/>
    <rect x="4.8" y="15" width="1.7999999999999998" height="1.7999999999999998" fill="#4F46E5"/>
    <rect x="25.2" y="15" width="1.7999999999999998" height="1.7999999999999998" fill="#4F46E5"/>
    <rect x="15" y="19.2" width="1.7999999999999998" height="1.7999999999999998" fill="#4F46E5"/>
    <rect x="19.2" y="25.2" width="1.7999999999999998" height="1.7999999999999998" fill="#4F46E5"/>
    <rect x="25.2" y="25.2" width="1.7999999999999998" height="1.7999999999999998" fill="#4F46E5"/>
    <rect x="28.799999999999997" y="19.2" width="1.7999999999999998" height="1.7999999999999998" fill="#4F46E5"/>
    <rect x="15" y="28.799999999999997" width="1.7999999999999998" height="1.7999999999999998" fill="#4F46E5"/>
  </g>
  
  <text x="30" y="54" text-anchor="middle" font-family="-apple-system, BlinkMacSystemFont, Arial" font-size="4.8" font-weight="600" fill="white">QrMingle</text>
</svg>