
<svg width="1024" height="1024" viewBox="0 0 1024 1024" xmlns="http://www.w3.org/2000/svg">
  <defs>
    <linearGradient id="grad" x1="0%" y1="0%" x2="100%" y2="100%">
      <stop offset="0%" style="stop-color:#4F46E5;stop-opacity:1" />
      <stop offset="100%" style="stop-color:#7C3AED;stop-opacity:1" />
    </linearGradient>
  </defs>
  <rect width="1024" height="1024" rx="225.28" fill="url(#grad)"/>
  
  <!-- QR Code representation -->
  <g transform="translate(204.8, 204.8)">
    <rect x="0" y="0" width="614.4" height="614.4" rx="51.2" fill="white" fill-opacity="0.95"/>
    
    <!-- QR corner markers -->
    <rect x="51.2" y="51.2" width="153.6" height="153.6" rx="20.48" fill="#4F46E5"/>
    <rect x="409.6" y="51.2" width="153.6" height="153.6" rx="20.48" fill="#4F46E5"/>
    <rect x="51.2" y="409.6" width="153.6" height="153.6" rx="20.48" fill="#4F46E5"/>
    
    <!-- QR data dots -->
    <rect x="256" y="81.92" width="30.72" height="30.72" fill="#4F46E5"/>
    <rect x="327.68" y="81.92" width="30.72" height="30.72" fill="#4F46E5"/>
    <rect x="256" y="153.6" width="30.72" height="30.72" fill="#4F46E5"/>
    <rect x="327.68" y="256" width="30.72" height="30.72" fill="#4F46E5"/>
    <rect x="81.92" y="256" width="30.72" height="30.72" fill="#4F46E5"/>
    <rect x="430.08" y="256" width="30.72" height="30.72" fill="#4F46E5"/>
    <rect x="256" y="327.68" width="30.72" height="30.72" fill="#4F46E5"/>
    <rect x="327.68" y="430.08" width="30.72" height="30.72" fill="#4F46E5"/>
    <rect x="430.08" y="430.08" width="30.72" height="30.72" fill="#4F46E5"/>
    <rect x="491.52" y="327.68" width="30.72" height="30.72" fill="#4F46E5"/>
    <rect x="256" y="491.52" width="30.72" height="30.72" fill="#4F46E5"/>
  </g>
  
  <text x="512" y="921.6" text-anchor="middle" font-family="-apple-system, BlinkMacSystemFont, Arial" font-size="81.92" font-weight="600" fill="white">QrMingle</text>
</svg>